<?xml version="1.0" standalone="no"?>
<svg id="top_level" xmlns="http://www.w3.org/2000/svg" width="960" height="681" xmlns:xlink="http://www.w3.org/1999/xlink" viewBox="0 0 960 681">
  <defs>
    <style type="text/css">
      svg {
        font-family: Arial, sans-serif;
        overflow: visible;
      }

      rect {
        shape-rendering: crispEdges;
      }

      .title {
        fill: #444;
        font-size: 24px;
      }

      .bracket-line {
        fill: none;
        stroke: #666;
        stroke-width: 2px;
      }

      .match--base-background {
        fill: #eee;
      }

      .match--wrapper-background {
        fill-opacity: 0;
      }

      .match--identifier {
        fill: #777;
        font-size: 10px;
      }

      .match--seed {
        fill: #222;
        font-size: 10px;
        letter-spacing: -1px;
      }

      .match--seed-background {
        fill: #d3d3d3;
      }

      .match--player-score-background {
        fill: #d3d3d3;
      }

      .match--player-score-background.-winner {
        fill: #F68800;
      }

      .match--player-name {
        fill: #222;
        font-size: 12px;
      }

      .match--player-name.-placeholder {
        font-style: italic;
        font-size: 11px;
        fill: #bbb;
      }

      .match--player-score {
        fill: #111;
        font-size: 12px;
      }

      .match--player-background {
        fill: #eee;
      }

      .match--player-divider {
        stroke: #fff;
        stroke-width: 1px;
      }

      .match--station-background {
        fill: #f3f3f3;
        opacity: 0.5;
      }

      .match--station {
        font-size: 11px;
        fill: #222;
      }

      .round-label {
        cursor: pointer;
      }

      .round-label rect {
        fill: #ddd;
      }

      .round-label text {
        fill: #444;
        font-size: 12px;
      }

      text.round-label--best-of {
        fill: #369;
        font-weight: bold;
      }

      .round-header-label text {
        fill: #444;
        font-size: 16px;
        font-weight: bold;
      }

      .round-header-label text.round-header-label--best-of {
        fill: #369;
        font-size: 12px;
      }

      @media only print {
        svg#top_level {
          width: 100%;
          height: 100%;
        }
      }
    </style>
  </defs>

    <svg
     xmlns:dc="http://purl.org/dc/elements/1.1/"
     xmlns:cc="http://creativecommons.org/ns#"
     xmlns:rdf="http://www.w3.org/1999/02/22-rdf-syntax-ns#"
     xmlns:svg="http://www.w3.org/2000/svg"
     xmlns="http://www.w3.org/2000/svg"
     style="overflow:visible; shape-rendering:auto;"
     xml:space="preserve"
     enable-background="new 0 0 842 330.625"
     overflow="visible"
     viewBox="0 0 467.41202 82.080627"
     height="54"
     width="300"
     id="Layer_1"
     version="1.1"><metadata
       id="metadata3278"><rdf:RDF><cc:Work
           rdf:about=""><dc:format>image/svg+xml</dc:format><dc:type
             rdf:resource="http://purl.org/dc/dcmitype/StillImage" /><dc:title></dc:title></cc:Work></rdf:RDF></metadata><defs
       id="defs3276" /><g
       transform="translate(-216.82224,0)"
       id="g3250"><g
         id="g3254"><path
           style="fill:#ff7324;fill-opacity:1;fill-rule:evenodd"
           id="path3256"
           d="m 291.496,17.625 c -21.852,5.605 -41.235,15.521 -56.801,32.248 3.926,4.251 8.416,5.555 13.744,6.55 11.443,-11.805 25.47,-19.303 41.265,-23.855 3.881,-1.12 1.923,-11.453 1.792,-14.943 z"
           clip-rule="evenodd" /><path
           style="fill:#ff7324;fill-opacity:1;fill-rule:evenodd"
           id="path3258"
           d="m 233.925,18.311 c -16.354,9.442 -21.958,30.361 -12.517,46.714 4.875,8.443 12.81,14.021 21.594,16.141 26.505,6.385 48.655,-21.885 47.718,-46.69 -15.059,4.472 -28.147,11.792 -38.855,22.549 31.46,5.422 3.104,27.607 -17.051,13.984 -14.457,-9.772 -16.144,-28.107 -7.929,-41.825 5.047,-8.429 12.112,-11.646 20.633,-15.281 -4.652,0.476 -9.282,1.918 -13.593,4.408 z"
           clip-rule="evenodd" /><path
           style="fill:#ff7324;fill-opacity:1;fill-rule:evenodd"
           id="path3260"
           d="m 291.387,0 c -29.036,8.964 -60.413,17.076 -62.222,35.94 -0.402,2.803 0.189,5.862 2.14,9.24 0.625,1.081 1.263,2.048 1.917,2.919 14.912,-16.892 33.967,-26.92 56.605,-32.691 3.915,-0.998 1.692,-11.919 1.56,-15.408 z"
           clip-rule="evenodd" /></g></g><g
       id="text2995"
       style="font-style:normal;font-weight:normal;font-size:40px;line-height:125%;font-family:Sans;letter-spacing:0px;word-spacing:0px;fill:#000000;fill-opacity:1;stroke:none"><path
         id="path3740"
         style="font-style:normal;font-variant:normal;font-weight:bold;font-stretch:normal;font-size:64px;line-height:125%;font-family:FuturaRO;-inkscape-font-specification:'FuturaRO Bold';text-align:start;writing-mode:lr-tb;text-anchor:start"
         d="m 133.56,20.400628 0,11.264 q -4.16,-5.12 -10.624,-5.12 -6.528,0 -10.56,5.184 -3.648,4.736 -3.648,11.456 0,6.528 3.776,11.2 4.032,5.056 10.368,5.056 6.272,0 10.688,-5.12 l 0,11.2 q -6.144,2.88 -10.944,2.88 -10.176,0 -16.96,-7.488 -6.656,-7.296 -6.656,-17.536 0,-10.624 6.528,-18.048 6.784,-7.744 17.28,-7.744 5.504,0 10.752,2.816 z" /><path
         id="path3742"
         style="font-style:normal;font-variant:normal;font-weight:bold;font-stretch:normal;font-size:64px;line-height:125%;font-family:FuturaRO;-inkscape-font-specification:'FuturaRO Bold';text-align:start;writing-mode:lr-tb;text-anchor:start"
         d="m 149.212,37.872628 17.408,0 0,-19.008 9.408,0 0,48.256 -9.408,0 0,-21.568 -17.408,0 0,21.568 -9.408,0 0,-48.256 9.408,0 0,19.008 z" /><path
         id="path3744"
         style="font-style:normal;font-variant:normal;font-weight:bold;font-stretch:normal;font-size:64px;line-height:125%;font-family:FuturaRO;-inkscape-font-specification:'FuturaRO Bold';text-align:start;writing-mode:lr-tb;text-anchor:start"
         d="m 209.553,56.944628 -16.768,0 -3.968,10.176 -9.92,0 18.816,-49.536 7.296,0 18.304,49.536 -10.048,0 -3.712,-10.176 z m -2.624,-7.68 -6.016,-17.536 -5.44,17.536 11.456,0 z" /><path
         id="path3746"
         style="font-style:normal;font-variant:normal;font-weight:bold;font-stretch:normal;font-size:64px;line-height:125%;font-family:FuturaRO;-inkscape-font-specification:'FuturaRO Bold';text-align:start;writing-mode:lr-tb;text-anchor:start"
         d="m 235.587,18.864628 0,40.064 13.312,0 0,8.192 -22.72,0 0,-48.256 9.408,0 z" /><path
         id="path3748"
         style="font-style:normal;font-variant:normal;font-weight:bold;font-stretch:normal;font-size:64px;line-height:125%;font-family:FuturaRO;-inkscape-font-specification:'FuturaRO Bold';text-align:start;writing-mode:lr-tb;text-anchor:start"
         d="m 261.337,18.864628 0,40.064 13.312,0 0,8.192 -22.72,0 0,-48.256 9.408,0 z" /><path
         id="path3750"
         style="font-style:normal;font-variant:normal;font-weight:bold;font-stretch:normal;font-size:64px;line-height:125%;font-family:FuturaRO;-inkscape-font-specification:'FuturaRO Bold';text-align:start;writing-mode:lr-tb;text-anchor:start"
         d="m 299.247,68.400628 q -10.496,0 -17.28,-7.552 -6.592,-7.36 -6.592,-17.92 0,-10.496 6.656,-17.792 6.848,-7.552 17.216,-7.552 10.368,0 17.216,7.552 6.656,7.296 6.656,17.792 0,10.56 -6.592,17.92 -6.784,7.552 -17.28,7.552 z m 0,-41.536 q -6.08,0 -10.24,4.864 -3.904,4.608 -3.904,10.816 0,5.952 4.032,11.072 4.352,5.504 10.112,5.504 5.76,0 10.112,-5.504 4.032,-5.12 4.032,-11.072 0,-6.144 -3.968,-10.816 -4.16,-4.864 -10.176,-4.864 z" /><path
         id="path3752"
         style="font-style:normal;font-variant:normal;font-weight:bold;font-stretch:normal;font-size:64px;line-height:125%;font-family:FuturaRO;-inkscape-font-specification:'FuturaRO Bold';text-align:start;writing-mode:lr-tb;text-anchor:start"
         d="m 327.679,67.120628 0,-49.536 6.784,0 25.408,33.728 0.128,-32.448 9.408,0 0,49.216 -6.784,0 -25.408,-33.728 -0.128,32.768 -9.408,0 z" /><path
         id="path3754"
         style="font-style:normal;font-variant:normal;font-weight:bold;font-stretch:normal;font-size:64px;line-height:125%;font-family:FuturaRO;-inkscape-font-specification:'FuturaRO Bold';text-align:start;writing-mode:lr-tb;text-anchor:start"
         d="m 398.128,41.456628 20.8,0 0,1.216 q 0,11.072 -5.312,18.048 -5.888,7.68 -16.64,7.68 -10.304,0 -16.768,-7.552 -6.208,-7.232 -6.208,-17.664 0,-10.752 6.336,-17.984 6.592,-7.616 17.216,-7.616 6.144,0 11.2,3.072 5.12,3.008 7.872,8.448 l -8.32,4.48 q -1.472,-3.392 -4.48,-5.504 -2.944,-2.176 -6.528,-2.176 -6.4,0 -10.24,5.632 -3.328,4.992 -3.328,11.648 0,6.72 3.392,11.52 3.84,5.376 10.24,5.376 4.416,0 7.68,-3.264 3.328,-3.264 3.328,-7.68 l -10.24,0 0,-7.68 z" /><path
         id="path3756"
         style="font-style:normal;font-variant:normal;font-weight:bold;font-stretch:normal;font-size:64px;line-height:125%;font-family:FuturaRO;-inkscape-font-specification:'FuturaRO Bold';text-align:start;writing-mode:lr-tb;text-anchor:start"
         d="m 448.514,27.056628 -15.552,0 0,10.624 14.976,0 0,8.192 -14.976,0 0,13.056 15.552,0 0,8.192 -24.96,0 0,-48.256 24.96,0 0,8.192 z" /><path
         id="path3758"
         style="font-style:normal;font-variant:normal;font-weight:bold;font-stretch:normal;font-size:64px;line-height:125%;font-family:FuturaRO;-inkscape-font-specification:'FuturaRO Bold';text-align:start;writing-mode:lr-tb;text-anchor:start"
         d="m 461.716,57.008628 q 2.432,0 4.032,1.6 1.664,1.6 1.664,4.032 0,2.368 -1.664,4.096 -1.664,1.664 -4.032,1.664 -2.432,0 -4.096,-1.664 -1.6,-1.664 -1.6,-4.096 0,-2.368 1.664,-3.968 1.664,-1.664 4.032,-1.664 z m -4.544,-3.776 0,-34.368 9.088,0 0,34.368 -9.088,0 z" /></g>
    </svg>
  <text y="85" class="title">栗子杯测试3.0</text>
  <svg y="110">
    <svg class="tournament-bracket -for-print" width="960" height="521" x="0" y="0"><g><g class="rounds" transform="translate(0,0)"><svg class="round" x="0"><g class="round-label" data-toggle="" data-href="/zh_CN/tournaments/14973340/rounds/new_or_edit?number=1&amp;title=%E7%AC%AC1%E8%BD%AE"><rect width="243" height="25"></rect><text x="122" y="17" width="243" height="15" text-anchor="middle">第1轮</text></g></svg><svg class="round" x="244"><g class="round-label" data-toggle="" data-href="/zh_CN/tournaments/14973340/rounds/new_or_edit?number=2&amp;title=%E7%AC%AC2%E8%BD%AE"><rect width="243" height="25"></rect><text x="122" y="17" width="243" height="15" text-anchor="middle">第2轮</text></g></svg><svg class="round" x="488"><g class="round-label" data-toggle="" data-href="/zh_CN/tournaments/14973340/rounds/new_or_edit?number=3&amp;title=%E5%8D%8A%E5%86%B3%E8%B5%9B"><rect width="243" height="25"></rect><text x="122" y="17" width="243" height="15" text-anchor="middle">半决赛</text></g></svg><svg class="round" x="732"><g class="round-label" data-toggle="" data-href="/zh_CN/tournaments/14973340/rounds/new_or_edit?number=4&amp;title=%E5%86%B3%E8%B5%9B"><rect width="243" height="25"></rect><text x="122" y="17" width="243" height="15" text-anchor="middle">决赛</text></g></svg></g><g transform="translate(488 143)" class="bracket-line-container"><path d="M 228 1 L 236 1 L 236 108.00000000000001" class="bracket-line" data-line-length="122.00000000000001"></path></g><g transform="translate(488 251)" class="bracket-line-container"><path d="M 228 107 L 236 107 L 236 1 L 244 1" class="bracket-line" data-line-length="122"></path></g><g transform="translate(244 305)" class="bracket-line-container"><path d="M 228 1 L 236 1 L 236 54" class="bracket-line" data-line-length="68"></path></g><g transform="translate(244 359)" class="bracket-line-container"><path d="M 228 53 L 236 53 L 236 1 L 244 1" class="bracket-line" data-line-length="68"></path></g><g transform="translate(244 89)" class="bracket-line-container"><path d="M 228 1 L 236 1 L 236 53.999999999999986" class="bracket-line" data-line-length="67.99999999999999"></path></g><g transform="translate(244 143)" class="bracket-line-container"><path d="M 228 53.000000000000014 L 236 53.000000000000014 L 236 1 L 244 1" class="bracket-line" data-line-length="68.00000000000001"></path></g><g transform="translate(0 386)" class="bracket-line-container"><path d="M 228 1 L 236 1 L 236 27" class="bracket-line" data-line-length="41"></path></g><g transform="translate(0 413)" class="bracket-line-container"><path d="M 228 26 L 236 26 L 236 1 L 244 1" class="bracket-line" data-line-length="41"></path></g><g transform="translate(0 278)" class="bracket-line-container"><path d="M 228 1 L 236 1 L 236 27" class="bracket-line" data-line-length="41"></path></g><g transform="translate(0 305)" class="bracket-line-container"><path d="M 228 26 L 236 26 L 236 1 L 244 1" class="bracket-line" data-line-length="41"></path></g><g transform="translate(0 170)" class="bracket-line-container"><path d="M 228 1 L 236 1 L 236 27" class="bracket-line" data-line-length="41"></path></g><g transform="translate(0 197)" class="bracket-line-container"><path d="M 228 26 L 236 26 L 236 1 L 244 1" class="bracket-line" data-line-length="41"></path></g><g transform="translate(0 62)" class="bracket-line-container"><path d="M 228 1 L 236 1 L 236 27" class="bracket-line" data-line-length="41"></path></g><g transform="translate(0 89)" class="bracket-line-container"><path d="M 228 26 L 236 26 L 236 1 L 244 1" class="bracket-line" data-line-length="41"></path></g><g transform="translate(732 224)" class="match -pending " data-identifier="15"><defs><clipPath id="match-clippath-15"><rect x="26" y="5" width="200" height="45" rx="3" ry="3"></rect></clipPath></defs><text x="11" y="31" width="24" height="10" text-anchor="middle" class="match--identifier">15</text><rect x="24" y="3" width="204" height="49" rx="3" ry="3" class="match--wrapper-background "></rect><rect x="26" y="5" width="200" height="45" rx="3" ry="3" class="match--base-background"></rect><g clip-path="url(#match-clippath-15)"><svg x="0" y="5" class="match--player"><title></title><defs><clipPath id="clipPath5431430"><rect x="50" y="0" width="143" height="22"></rect></clipPath><clipPath id="portraitClipPath5431430"><path></path></clipPath></defs><path d="M 50 0 h 147 v 22 h -147 Z" class="match--player-background -empty"></path><path d="M 26 0 h 24 v 22 h -24 Z" class="match--seed-background"></path><text x="38" y="14" width="10" height="12" text-anchor="middle" class="match--seed"></text></svg><svg x="0" y="28" class="match--player"><title></title><defs><clipPath id="clipPath8764019"><rect x="50" y="0" width="143" height="22"></rect></clipPath><clipPath id="portraitClipPath8764019"><path></path></clipPath></defs><path d="M 50 0 h 147 v 22 h -147 Z" class="match--player-background -empty"></path><path d="M 26 0 h 24 v 22 h -24 Z" class="match--seed-background"></path><text x="38" y="14" width="10" height="12" text-anchor="middle" class="match--seed"></text><line x1="26" y1="-0.5" x2="226" y2="-0.5" class="match--player-divider"></line></svg></g></g><g transform="translate(488 332)" class="match -pending " data-identifier="14"><defs><clipPath id="match-clippath-14"><rect x="26" y="5" width="200" height="45" rx="3" ry="3"></rect></clipPath></defs><text x="11" y="31" width="24" height="10" text-anchor="middle" class="match--identifier">14</text><rect x="24" y="3" width="204" height="49" rx="3" ry="3" class="match--wrapper-background "></rect><rect x="26" y="5" width="200" height="45" rx="3" ry="3" class="match--base-background"></rect><g clip-path="url(#match-clippath-14)"><svg x="0" y="5" class="match--player"><title></title><defs><clipPath id="clipPath4000681"><rect x="50" y="0" width="143" height="22"></rect></clipPath><clipPath id="portraitClipPath4000681"><path></path></clipPath></defs><path d="M 50 0 h 147 v 22 h -147 Z" class="match--player-background -empty"></path><path d="M 26 0 h 24 v 22 h -24 Z" class="match--seed-background"></path><text x="38" y="14" width="10" height="12" text-anchor="middle" class="match--seed"></text></svg><svg x="0" y="28" class="match--player"><title></title><defs><clipPath id="clipPath5585237"><rect x="50" y="0" width="143" height="22"></rect></clipPath><clipPath id="portraitClipPath5585237"><path></path></clipPath></defs><path d="M 50 0 h 147 v 22 h -147 Z" class="match--player-background -empty"></path><path d="M 26 0 h 24 v 22 h -24 Z" class="match--seed-background"></path><text x="38" y="14" width="10" height="12" text-anchor="middle" class="match--seed"></text><line x1="26" y1="-0.5" x2="226" y2="-0.5" class="match--player-divider"></line></svg></g></g><g transform="translate(488 115)" class="match -pending " data-identifier="13"><defs><clipPath id="match-clippath-13"><rect x="26" y="5" width="200" height="45" rx="3" ry="3"></rect></clipPath></defs><text x="11" y="31" width="24" height="10" text-anchor="middle" class="match--identifier">13</text><rect x="24" y="3" width="204" height="49" rx="3" ry="3" class="match--wrapper-background "></rect><rect x="26" y="5" width="200" height="45" rx="3" ry="3" class="match--base-background"></rect><g clip-path="url(#match-clippath-13)"><svg x="0" y="5" class="match--player"><title></title><defs><clipPath id="clipPath3683360"><rect x="50" y="0" width="143" height="22"></rect></clipPath><clipPath id="portraitClipPath3683360"><path></path></clipPath></defs><path d="M 50 0 h 147 v 22 h -147 Z" class="match--player-background -empty"></path><path d="M 26 0 h 24 v 22 h -24 Z" class="match--seed-background"></path><text x="38" y="14" width="10" height="12" text-anchor="middle" class="match--seed"></text></svg><svg x="0" y="28" class="match--player"><title></title><defs><clipPath id="clipPath4288817"><rect x="50" y="0" width="143" height="22"></rect></clipPath><clipPath id="portraitClipPath4288817"><path></path></clipPath></defs><path d="M 50 0 h 147 v 22 h -147 Z" class="match--player-background -empty"></path><path d="M 26 0 h 24 v 22 h -24 Z" class="match--seed-background"></path><text x="38" y="14" width="10" height="12" text-anchor="middle" class="match--seed"></text><line x1="26" y1="-0.5" x2="226" y2="-0.5" class="match--player-divider"></line></svg></g></g><g transform="translate(244 386)" class="match -pending " data-identifier="12"><defs><clipPath id="match-clippath-12"><rect x="26" y="5" width="200" height="45" rx="3" ry="3"></rect></clipPath></defs><text x="11" y="31" width="24" height="10" text-anchor="middle" class="match--identifier">12</text><rect x="24" y="3" width="204" height="49" rx="3" ry="3" class="match--wrapper-background "></rect><rect x="26" y="5" width="200" height="45" rx="3" ry="3" class="match--base-background"></rect><g clip-path="url(#match-clippath-12)"><svg x="0" y="5" class="match--player"><title></title><defs><clipPath id="clipPath8784720"><rect x="50" y="0" width="143" height="22"></rect></clipPath><clipPath id="portraitClipPath8784720"><path></path></clipPath></defs><path d="M 50 0 h 147 v 22 h -147 Z" class="match--player-background -empty"></path><path d="M 26 0 h 24 v 22 h -24 Z" class="match--seed-background"></path><text x="38" y="14" width="10" height="12" text-anchor="middle" class="match--seed"></text></svg><svg x="0" y="28" class="match--player"><title></title><defs><clipPath id="clipPath637703"><rect x="50" y="0" width="143" height="22"></rect></clipPath><clipPath id="portraitClipPath637703"><path></path></clipPath></defs><path d="M 50 0 h 147 v 22 h -147 Z" class="match--player-background -empty"></path><path d="M 26 0 h 24 v 22 h -24 Z" class="match--seed-background"></path><text x="38" y="14" width="10" height="12" text-anchor="middle" class="match--seed"></text><line x1="26" y1="-0.5" x2="226" y2="-0.5" class="match--player-divider"></line></svg></g></g><g transform="translate(244 278)" class="match -pending " data-identifier="11"><defs><clipPath id="match-clippath-11"><rect x="26" y="5" width="200" height="45" rx="3" ry="3"></rect></clipPath></defs><text x="11" y="31" width="24" height="10" text-anchor="middle" class="match--identifier">11</text><rect x="24" y="3" width="204" height="49" rx="3" ry="3" class="match--wrapper-background "></rect><rect x="26" y="5" width="200" height="45" rx="3" ry="3" class="match--base-background"></rect><g clip-path="url(#match-clippath-11)"><svg x="0" y="5" class="match--player"><title></title><defs><clipPath id="clipPath1118460"><rect x="50" y="0" width="143" height="22"></rect></clipPath><clipPath id="portraitClipPath1118460"><path></path></clipPath></defs><path d="M 50 0 h 147 v 22 h -147 Z" class="match--player-background -empty"></path><path d="M 26 0 h 24 v 22 h -24 Z" class="match--seed-background"></path><text x="38" y="14" width="10" height="12" text-anchor="middle" class="match--seed"></text></svg><svg x="0" y="28" class="match--player"><title></title><defs><clipPath id="clipPath8850947"><rect x="50" y="0" width="143" height="22"></rect></clipPath><clipPath id="portraitClipPath8850947"><path></path></clipPath></defs><path d="M 50 0 h 147 v 22 h -147 Z" class="match--player-background -empty"></path><path d="M 26 0 h 24 v 22 h -24 Z" class="match--seed-background"></path><text x="38" y="14" width="10" height="12" text-anchor="middle" class="match--seed"></text><line x1="26" y1="-0.5" x2="226" y2="-0.5" class="match--player-divider"></line></svg></g></g><g transform="translate(244 170)" class="match -pending " data-identifier="10"><defs><clipPath id="match-clippath-10"><rect x="26" y="5" width="200" height="45" rx="3" ry="3"></rect></clipPath></defs><text x="11" y="31" width="24" height="10" text-anchor="middle" class="match--identifier">10</text><rect x="24" y="3" width="204" height="49" rx="3" ry="3" class="match--wrapper-background "></rect><rect x="26" y="5" width="200" height="45" rx="3" ry="3" class="match--base-background"></rect><g clip-path="url(#match-clippath-10)"><svg x="0" y="5" class="match--player"><title></title><defs><clipPath id="clipPath5782394"><rect x="50" y="0" width="143" height="22"></rect></clipPath><clipPath id="portraitClipPath5782394"><path></path></clipPath></defs><path d="M 50 0 h 147 v 22 h -147 Z" class="match--player-background -empty"></path><path d="M 26 0 h 24 v 22 h -24 Z" class="match--seed-background"></path><text x="38" y="14" width="10" height="12" text-anchor="middle" class="match--seed"></text></svg><svg x="0" y="28" class="match--player"><title></title><defs><clipPath id="clipPath5277440"><rect x="50" y="0" width="143" height="22"></rect></clipPath><clipPath id="portraitClipPath5277440"><path></path></clipPath></defs><path d="M 50 0 h 147 v 22 h -147 Z" class="match--player-background -empty"></path><path d="M 26 0 h 24 v 22 h -24 Z" class="match--seed-background"></path><text x="38" y="14" width="10" height="12" text-anchor="middle" class="match--seed"></text><line x1="26" y1="-0.5" x2="226" y2="-0.5" class="match--player-divider"></line></svg></g></g><g transform="translate(244 62)" class="match -pending " data-identifier="9"><defs><clipPath id="match-clippath-9"><rect x="26" y="5" width="200" height="45" rx="3" ry="3"></rect></clipPath></defs><text x="11" y="31" width="24" height="10" text-anchor="middle" class="match--identifier">9</text><rect x="24" y="3" width="204" height="49" rx="3" ry="3" class="match--wrapper-background "></rect><rect x="26" y="5" width="200" height="45" rx="3" ry="3" class="match--base-background"></rect><g clip-path="url(#match-clippath-9)"><svg x="0" y="5" class="match--player"><title></title><defs><clipPath id="clipPath8389490"><rect x="50" y="0" width="143" height="22"></rect></clipPath><clipPath id="portraitClipPath8389490"><path></path></clipPath></defs><path d="M 50 0 h 147 v 22 h -147 Z" class="match--player-background -empty"></path><path d="M 26 0 h 24 v 22 h -24 Z" class="match--seed-background"></path><text x="38" y="14" width="10" height="12" text-anchor="middle" class="match--seed"></text></svg><svg x="0" y="28" class="match--player"><title></title><defs><clipPath id="clipPath8007158"><rect x="50" y="0" width="143" height="22"></rect></clipPath><clipPath id="portraitClipPath8007158"><path></path></clipPath></defs><path d="M 50 0 h 147 v 22 h -147 Z" class="match--player-background -empty"></path><path d="M 26 0 h 24 v 22 h -24 Z" class="match--seed-background"></path><text x="38" y="14" width="10" height="12" text-anchor="middle" class="match--seed"></text><line x1="26" y1="-0.5" x2="226" y2="-0.5" class="match--player-divider"></line></svg></g></g><g transform="translate(0 413)" class="match -pending " data-identifier="8"><defs><clipPath id="match-clippath-8"><rect x="26" y="5" width="200" height="45" rx="3" ry="3"></rect></clipPath></defs><text x="11" y="31" width="24" height="10" text-anchor="middle" class="match--identifier">8</text><rect x="24" y="3" width="204" height="49" rx="3" ry="3" class="match--wrapper-background "></rect><rect x="26" y="5" width="200" height="45" rx="3" ry="3" class="match--base-background"></rect><g clip-path="url(#match-clippath-8)"><svg x="0" y="5" class="match--player" data-participant-id="239112989"><title>Xsilosmr</title><defs><clipPath id="clipPath3611240"><rect x="50" y="0" width="143" height="22"></rect></clipPath><clipPath id="portraitClipPath3611240"><path></path></clipPath></defs><path d="M 50 0 h 147 v 22 h -147 Z" class="match--player-background"></path><path d="M 26 0 h 24 v 22 h -24 Z" class="match--seed-background"></path><text x="38" y="14" width="10" height="12" text-anchor="middle" class="match--seed">6</text><text clip-path="url(#clipPath3611240)" x="77" y="15" width="147" height="12" text-anchor="start" class="match--player-name ">Xsilosmr</text><g clip-path=""><image xlink:href="https://secure.gravatar.com/avatar/26611a21cbd4deb4fab5e16ce0634a17?r=r&amp;s=40&amp;d=https://s3.amazonaws.com/challonge_app/misc/challonge_fireball_gray.png" x="55" y="2" height="18" width= "18" /></g></svg><svg x="0" y="28" class="match--player" data-participant-id="239117576"><title>jiefeng</title><defs><clipPath id="clipPath5404784"><rect x="50" y="0" width="143" height="22"></rect></clipPath><clipPath id="portraitClipPath5404784"><path></path></clipPath></defs><path d="M 50 0 h 147 v 22 h -147 Z" class="match--player-background"></path><path d="M 26 0 h 24 v 22 h -24 Z" class="match--seed-background"></path><text x="38" y="14" width="10" height="12" text-anchor="middle" class="match--seed">11</text><text clip-path="url(#clipPath5404784)" x="77" y="15" width="147" height="12" text-anchor="start" class="match--player-name ">jiefeng</text><g clip-path=""><image xlink:href="https://secure.gravatar.com/avatar/16b66c6eb19c57fee0ede1e778fc1e3b?r=r&amp;s=40&amp;d=https://s3.amazonaws.com/challonge_app/misc/challonge_fireball_gray.png" x="55" y="2" height="18" width= "18" /></g><line x1="26" y1="-0.5" x2="226" y2="-0.5" class="match--player-divider"></line></svg></g></g><g transform="translate(0 359)" class="match -pending " data-identifier="7"><defs><clipPath id="match-clippath-7"><rect x="26" y="5" width="200" height="45" rx="3" ry="3"></rect></clipPath></defs><text x="11" y="31" width="24" height="10" text-anchor="middle" class="match--identifier">7</text><rect x="24" y="3" width="204" height="49" rx="3" ry="3" class="match--wrapper-background "></rect><rect x="26" y="5" width="200" height="45" rx="3" ry="3" class="match--base-background"></rect><g clip-path="url(#match-clippath-7)"><svg x="0" y="5" class="match--player" data-participant-id="239115356"><title>星驱</title><defs><clipPath id="clipPath1533037"><rect x="50" y="0" width="143" height="22"></rect></clipPath><clipPath id="portraitClipPath1533037"><path></path></clipPath></defs><path d="M 50 0 h 147 v 22 h -147 Z" class="match--player-background"></path><path d="M 26 0 h 24 v 22 h -24 Z" class="match--seed-background"></path><text x="38" y="14" width="10" height="12" text-anchor="middle" class="match--seed">3</text><text clip-path="url(#clipPath1533037)" x="77" y="15" width="147" height="12" text-anchor="start" class="match--player-name ">星驱</text><g clip-path=""><image xlink:href="https://secure.gravatar.com/avatar/b3c7066fc2796ba492690150f3548954?r=r&amp;s=40&amp;d=https://s3.amazonaws.com/challonge_app/misc/challonge_fireball_gray.png" x="55" y="2" height="18" width= "18" /></g></svg><svg x="0" y="28" class="match--player" data-participant-id="239117102"><title>姬特你在干什么</title><defs><clipPath id="clipPath7042088"><rect x="50" y="0" width="143" height="22"></rect></clipPath><clipPath id="portraitClipPath7042088"><path></path></clipPath></defs><path d="M 50 0 h 147 v 22 h -147 Z" class="match--player-background"></path><path d="M 26 0 h 24 v 22 h -24 Z" class="match--seed-background"></path><text x="38" y="14" width="10" height="12" text-anchor="middle" class="match--seed">14</text><text clip-path="url(#clipPath7042088)" x="77" y="15" width="147" height="12" text-anchor="start" class="match--player-name ">姬特你在干什么</text><g clip-path=""><image xlink:href="https://secure.gravatar.com/avatar/a9ec17956915a42b36d2783efcb4de9b?r=r&amp;s=40&amp;d=https://s3.amazonaws.com/challonge_app/misc/challonge_fireball_gray.png" x="55" y="2" height="18" width= "18" /></g><line x1="26" y1="-0.5" x2="226" y2="-0.5" class="match--player-divider"></line></svg></g></g><g transform="translate(0 305)" class="match -pending " data-identifier="6"><defs><clipPath id="match-clippath-6"><rect x="26" y="5" width="200" height="45" rx="3" ry="3"></rect></clipPath></defs><text x="11" y="31" width="24" height="10" text-anchor="middle" class="match--identifier">6</text><rect x="24" y="3" width="204" height="49" rx="3" ry="3" class="match--wrapper-background "></rect><rect x="26" y="5" width="200" height="45" rx="3" ry="3" class="match--base-background"></rect><g clip-path="url(#match-clippath-6)"><svg x="0" y="5" class="match--player" data-participant-id="239116510"><title>苍白的正义</title><defs><clipPath id="clipPath6114966"><rect x="50" y="0" width="143" height="22"></rect></clipPath><clipPath id="portraitClipPath6114966"><path></path></clipPath></defs><path d="M 50 0 h 147 v 22 h -147 Z" class="match--player-background"></path><path d="M 26 0 h 24 v 22 h -24 Z" class="match--seed-background"></path><text x="38" y="14" width="10" height="12" text-anchor="middle" class="match--seed">7</text><text clip-path="url(#clipPath6114966)" x="77" y="15" width="147" height="12" text-anchor="start" class="match--player-name ">苍白的正义</text><g clip-path=""><image xlink:href="https://secure.gravatar.com/avatar/923ae6e3e67729160c288acd64451f98?r=r&amp;s=40&amp;d=https://s3.amazonaws.com/challonge_app/misc/challonge_fireball_gray.png" x="55" y="2" height="18" width= "18" /></g></svg><svg x="0" y="28" class="match--player" data-participant-id="239182432"><title>浮洛伊德</title><defs><clipPath id="clipPath8062661"><rect x="50" y="0" width="143" height="22"></rect></clipPath><clipPath id="portraitClipPath8062661"><path></path></clipPath></defs><path d="M 50 0 h 147 v 22 h -147 Z" class="match--player-background"></path><path d="M 26 0 h 24 v 22 h -24 Z" class="match--seed-background"></path><text x="38" y="14" width="10" height="12" text-anchor="middle" class="match--seed">10</text><text clip-path="url(#clipPath8062661)" x="77" y="15" width="147" height="12" text-anchor="start" class="match--player-name ">浮洛伊德</text><g clip-path=""><image xlink:href="https://secure.gravatar.com/avatar/8f13455ffe93843de3cea6e6c4f8d44c?r=r&amp;s=40&amp;d=https://s3.amazonaws.com/challonge_app/misc/challonge_fireball_gray.png" x="55" y="2" height="18" width= "18" /></g><line x1="26" y1="-0.5" x2="226" y2="-0.5" class="match--player-divider"></line></svg></g></g><g transform="translate(0 251)" class="match -pending " data-identifier="5"><defs><clipPath id="match-clippath-5"><rect x="26" y="5" width="200" height="45" rx="3" ry="3"></rect></clipPath></defs><text x="11" y="31" width="24" height="10" text-anchor="middle" class="match--identifier">5</text><rect x="24" y="3" width="204" height="49" rx="3" ry="3" class="match--wrapper-background "></rect><rect x="26" y="5" width="200" height="45" rx="3" ry="3" class="match--base-background"></rect><g clip-path="url(#match-clippath-5)"><svg x="0" y="5" class="match--player" data-participant-id="239164894"><title>密特拉</title><defs><clipPath id="clipPath3523956"><rect x="50" y="0" width="143" height="22"></rect></clipPath><clipPath id="portraitClipPath3523956"><path></path></clipPath></defs><path d="M 50 0 h 147 v 22 h -147 Z" class="match--player-background"></path><path d="M 26 0 h 24 v 22 h -24 Z" class="match--seed-background"></path><text x="38" y="14" width="10" height="12" text-anchor="middle" class="match--seed">2</text><text clip-path="url(#clipPath3523956)" x="77" y="15" width="147" height="12" text-anchor="start" class="match--player-name ">密特拉</text><g clip-path=""><image xlink:href="https://secure.gravatar.com/avatar/e074bbdb4c2b0319f2415128e7a7df7b?r=r&amp;s=40&amp;d=https://s3.amazonaws.com/challonge_app/misc/challonge_fireball_gray.png" x="55" y="2" height="18" width= "18" /></g></svg><svg x="0" y="28" class="match--player" data-participant-id="239159808"><title>牢头</title><defs><clipPath id="clipPath6085"><rect x="50" y="0" width="143" height="22"></rect></clipPath><clipPath id="portraitClipPath6085"><path></path></clipPath></defs><path d="M 50 0 h 147 v 22 h -147 Z" class="match--player-background"></path><path d="M 26 0 h 24 v 22 h -24 Z" class="match--seed-background"></path><text x="38" y="14" width="10" height="12" text-anchor="middle" class="match--seed">15</text><text clip-path="url(#clipPath6085)" x="77" y="15" width="147" height="12" text-anchor="start" class="match--player-name ">牢头</text><g clip-path=""><image xlink:href="https://secure.gravatar.com/avatar/dc047fc63279150b74409d33b7064f2c?r=r&amp;s=40&amp;d=https://s3.amazonaws.com/challonge_app/misc/challonge_fireball_gray.png" x="55" y="2" height="18" width= "18" /></g><line x1="26" y1="-0.5" x2="226" y2="-0.5" class="match--player-divider"></line></svg></g></g><g transform="translate(0 197)" class="match -pending " data-identifier="4"><defs><clipPath id="match-clippath-4"><rect x="26" y="5" width="200" height="45" rx="3" ry="3"></rect></clipPath></defs><text x="11" y="31" width="24" height="10" text-anchor="middle" class="match--identifier">4</text><rect x="24" y="3" width="204" height="49" rx="3" ry="3" class="match--wrapper-background "></rect><rect x="26" y="5" width="200" height="45" rx="3" ry="3" class="match--base-background"></rect><g clip-path="url(#match-clippath-4)"><svg x="0" y="5" class="match--player" data-participant-id="239108601"><title>溯</title><defs><clipPath id="clipPath2868409"><rect x="50" y="0" width="143" height="22"></rect></clipPath><clipPath id="portraitClipPath2868409"><path></path></clipPath></defs><path d="M 50 0 h 147 v 22 h -147 Z" class="match--player-background"></path><path d="M 26 0 h 24 v 22 h -24 Z" class="match--seed-background"></path><text x="38" y="14" width="10" height="12" text-anchor="middle" class="match--seed">5</text><text clip-path="url(#clipPath2868409)" x="77" y="15" width="147" height="12" text-anchor="start" class="match--player-name ">溯</text><g clip-path=""><image xlink:href="https://secure.gravatar.com/avatar/4422e9982b34e9092c7ac0cbc6286923?r=r&amp;s=40&amp;d=https://s3.amazonaws.com/challonge_app/misc/challonge_fireball_gray.png" x="55" y="2" height="18" width= "18" /></g></svg><svg x="0" y="28" class="match--player" data-participant-id="239114549"><title>幻幻幻龙</title><defs><clipPath id="clipPath4148781"><rect x="50" y="0" width="143" height="22"></rect></clipPath><clipPath id="portraitClipPath4148781"><path></path></clipPath></defs><path d="M 50 0 h 147 v 22 h -147 Z" class="match--player-background"></path><path d="M 26 0 h 24 v 22 h -24 Z" class="match--seed-background"></path><text x="38" y="14" width="10" height="12" text-anchor="middle" class="match--seed">12</text><text clip-path="url(#clipPath4148781)" x="77" y="15" width="147" height="12" text-anchor="start" class="match--player-name ">幻幻幻龙</text><g clip-path=""><image xlink:href="https://secure.gravatar.com/avatar/ee0c88c970696b49adcfc87067fb787c?r=r&amp;s=40&amp;d=https://s3.amazonaws.com/challonge_app/misc/challonge_fireball_gray.png" x="55" y="2" height="18" width= "18" /></g><line x1="26" y1="-0.5" x2="226" y2="-0.5" class="match--player-divider"></line></svg></g></g><g transform="translate(0 143)" class="match -pending " data-identifier="3"><defs><clipPath id="match-clippath-3"><rect x="26" y="5" width="200" height="45" rx="3" ry="3"></rect></clipPath></defs><text x="11" y="31" width="24" height="10" text-anchor="middle" class="match--identifier">3</text><rect x="24" y="3" width="204" height="49" rx="3" ry="3" class="match--wrapper-background "></rect><rect x="26" y="5" width="200" height="45" rx="3" ry="3" class="match--base-background"></rect><g clip-path="url(#match-clippath-3)"><svg x="0" y="5" class="match--player" data-participant-id="239118289"><title>可以陪我摸一辈子吗</title><defs><clipPath id="clipPath5997992"><rect x="50" y="0" width="143" height="22"></rect></clipPath><clipPath id="portraitClipPath5997992"><path></path></clipPath></defs><path d="M 50 0 h 147 v 22 h -147 Z" class="match--player-background"></path><path d="M 26 0 h 24 v 22 h -24 Z" class="match--seed-background"></path><text x="38" y="14" width="10" height="12" text-anchor="middle" class="match--seed">4</text><text clip-path="url(#clipPath5997992)" x="77" y="15" width="147" height="12" text-anchor="start" class="match--player-name ">可以陪我摸一辈子吗</text><g clip-path=""><image xlink:href="https://secure.gravatar.com/avatar/98e5a15a91cf2f2cd71c87f92a306e8f?r=r&amp;s=40&amp;d=https://s3.amazonaws.com/challonge_app/misc/challonge_fireball_gray.png" x="55" y="2" height="18" width= "18" /></g></svg><svg x="0" y="28" class="match--player" data-participant-id="239132489"><title>樱酱</title><defs><clipPath id="clipPath1211341"><rect x="50" y="0" width="143" height="22"></rect></clipPath><clipPath id="portraitClipPath1211341"><path></path></clipPath></defs><path d="M 50 0 h 147 v 22 h -147 Z" class="match--player-background"></path><path d="M 26 0 h 24 v 22 h -24 Z" class="match--seed-background"></path><text x="38" y="14" width="10" height="12" text-anchor="middle" class="match--seed">13</text><text clip-path="url(#clipPath1211341)" x="77" y="15" width="147" height="12" text-anchor="start" class="match--player-name ">樱酱</text><g clip-path=""><image xlink:href="https://secure.gravatar.com/avatar/aaa5c30eb6ecb3a78778109c5f1a4be3?r=r&amp;s=40&amp;d=https://s3.amazonaws.com/challonge_app/misc/challonge_fireball_gray.png" x="55" y="2" height="18" width= "18" /></g><line x1="26" y1="-0.5" x2="226" y2="-0.5" class="match--player-divider"></line></svg></g></g><g transform="translate(0 89)" class="match -pending " data-identifier="2"><defs><clipPath id="match-clippath-2"><rect x="26" y="5" width="200" height="45" rx="3" ry="3"></rect></clipPath></defs><text x="11" y="31" width="24" height="10" text-anchor="middle" class="match--identifier">2</text><rect x="24" y="3" width="204" height="49" rx="3" ry="3" class="match--wrapper-background "></rect><rect x="26" y="5" width="200" height="45" rx="3" ry="3" class="match--base-background"></rect><g clip-path="url(#match-clippath-2)"><svg x="0" y="5" class="match--player" data-participant-id="239112958"><title>海圻大胖猫</title><defs><clipPath id="clipPath4936197"><rect x="50" y="0" width="143" height="22"></rect></clipPath><clipPath id="portraitClipPath4936197"><path></path></clipPath></defs><path d="M 50 0 h 147 v 22 h -147 Z" class="match--player-background"></path><path d="M 26 0 h 24 v 22 h -24 Z" class="match--seed-background"></path><text x="38" y="14" width="10" height="12" text-anchor="middle" class="match--seed">8</text><text clip-path="url(#clipPath4936197)" x="77" y="15" width="147" height="12" text-anchor="start" class="match--player-name ">海圻大胖猫</text><g clip-path=""><image xlink:href="https://secure.gravatar.com/avatar/3f388b0b45b4dfe4978699e6d41f4624?r=r&amp;s=40&amp;d=https://s3.amazonaws.com/challonge_app/misc/challonge_fireball_gray.png" x="55" y="2" height="18" width= "18" /></g></svg><svg x="0" y="28" class="match--player" data-participant-id="239167830"><title>雪融不由春</title><defs><clipPath id="clipPath4099582"><rect x="50" y="0" width="143" height="22"></rect></clipPath><clipPath id="portraitClipPath4099582"><path></path></clipPath></defs><path d="M 50 0 h 147 v 22 h -147 Z" class="match--player-background"></path><path d="M 26 0 h 24 v 22 h -24 Z" class="match--seed-background"></path><text x="38" y="14" width="10" height="12" text-anchor="middle" class="match--seed">9</text><text clip-path="url(#clipPath4099582)" x="77" y="15" width="147" height="12" text-anchor="start" class="match--player-name ">雪融不由春</text><g clip-path=""><image xlink:href="https://secure.gravatar.com/avatar/76f7ae38c33b8a47df1db876a691387b?r=r&amp;s=40&amp;d=https://s3.amazonaws.com/challonge_app/misc/challonge_fireball_gray.png" x="55" y="2" height="18" width= "18" /></g><line x1="26" y1="-0.5" x2="226" y2="-0.5" class="match--player-divider"></line></svg></g></g><g transform="translate(0 35)" class="match -pending " data-identifier="1"><defs><clipPath id="match-clippath-1"><rect x="26" y="5" width="200" height="45" rx="3" ry="3"></rect></clipPath></defs><text x="11" y="31" width="24" height="10" text-anchor="middle" class="match--identifier">1</text><rect x="24" y="3" width="204" height="49" rx="3" ry="3" class="match--wrapper-background "></rect><rect x="26" y="5" width="200" height="45" rx="3" ry="3" class="match--base-background"></rect><g clip-path="url(#match-clippath-1)"><svg x="0" y="5" class="match--player" data-participant-id="239167551"><title>BanEnoobs</title><defs><clipPath id="clipPath6180858"><rect x="50" y="0" width="143" height="22"></rect></clipPath><clipPath id="portraitClipPath6180858"><path></path></clipPath></defs><path d="M 50 0 h 147 v 22 h -147 Z" class="match--player-background"></path><path d="M 26 0 h 24 v 22 h -24 Z" class="match--seed-background"></path><text x="38" y="14" width="10" height="12" text-anchor="middle" class="match--seed">1</text><text clip-path="url(#clipPath6180858)" x="77" y="15" width="147" height="12" text-anchor="start" class="match--player-name ">BanEnoobs</text><g clip-path=""><image xlink:href="https://secure.gravatar.com/avatar/7af7ba62c2dee712ea4d05459518f00c?r=r&amp;s=40&amp;d=https://s3.amazonaws.com/challonge_app/misc/challonge_fireball_gray.png" x="55" y="2" height="18" width= "18" /></g></svg><svg x="0" y="28" class="match--player" data-participant-id="239113511"><title>月下竹</title><defs><clipPath id="clipPath5945153"><rect x="50" y="0" width="143" height="22"></rect></clipPath><clipPath id="portraitClipPath5945153"><path></path></clipPath></defs><path d="M 50 0 h 147 v 22 h -147 Z" class="match--player-background"></path><path d="M 26 0 h 24 v 22 h -24 Z" class="match--seed-background"></path><text x="38" y="14" width="10" height="12" text-anchor="middle" class="match--seed">16</text><text clip-path="url(#clipPath5945153)" x="77" y="15" width="147" height="12" text-anchor="start" class="match--player-name ">月下竹</text><g clip-path=""><image xlink:href="https://secure.gravatar.com/avatar/07cb3fd897157d1a9ce9922d85a87956?r=r&amp;s=40&amp;d=https://s3.amazonaws.com/challonge_app/misc/challonge_fireball_gray.png" x="55" y="2" height="18" width= "18" /></g><line x1="26" y1="-0.5" x2="226" y2="-0.5" class="match--player-divider"></line></svg></g></g></g></svg>
<script>
console.error.apply(console, ["Warning: Failed prop type: The prop `theme` is marked as required in `TournamentBracket`, but its value is `undefined`.\n    in TournamentBracket"]);
</script>
  </svg>
</svg>
